<svg xmlns="http://www.w3.org/2000/svg" version="1.1" viewBox="-5.0 -10.0 110.0 135.0">
 <path d="m34.852 87.449c-0.18359 0.035156-0.37109 0.050781-0.5625 0.050781h-24.66c-0.88672 0-1.7266-0.375-2.3203-1.0312s-0.87891-1.5312-0.78906-2.4102l1.0039-9.8516c0.39844-3.8828 3.5898-6.8594 7.457-7.0117-1.4883-1.6602-2.3945-3.8555-2.3945-6.2578 0-5.1719 4.1992-9.375 9.3711-9.375 5.1758 0 9.375 4.2031 9.375 9.375 0 2.4023-0.90625 4.5977-2.3945 6.2578 3.8633 0.15234 7.0586 3.1289 7.4531 7.0117l0.30469 2.9375c1.3281-2.1523 3.6641-3.5938 6.3242-3.6992-1.4883-1.6641-2.3945-3.8555-2.3945-6.2578 0-5.1758 4.1992-9.375 9.375-9.375s9.375 4.1992 9.375 9.375c0 2.4023-0.90625 4.5938-2.3945 6.2578 2.6602 0.10547 4.9961 1.5469 6.3242 3.6992l0.30469-2.9375c0.39453-3.8828 3.5898-6.8594 7.4531-7.0117-1.4883-1.6602-2.3945-3.8555-2.3945-6.2578 0-5.1719 4.1992-9.375 9.375-9.375 5.1719 0 9.3711 4.2031 9.3711 9.375 0 2.4023-0.90625 4.5977-2.3945 6.2578 3.8672 0.15234 7.0586 3.1289 7.457 7.0117l1.0039 9.8516c0.089843 0.87891-0.19531 1.7539-0.78906 2.4102s-1.4336 1.0312-2.3203 1.0312h-24.66c-0.19141 0-0.37891-0.015625-0.5625-0.050781l0.29297 2.8594c0.089844 0.87891-0.19531 1.7539-0.78906 2.4102s-1.4375 1.0312-2.3203 1.0312h-24.664c-0.88281 0-1.7266-0.375-2.3203-1.0312s-0.87891-1.5312-0.78906-2.4102zm-6.2344-17.137h-13.32c-2.4023 0-4.418 1.8203-4.6641 4.2109l-1.0039 9.8516h24.66l-1.0078-9.8516c-0.24219-2.3906-2.2539-4.2109-4.6641-4.2109zm-6.6602-3.125c3.4492 0 6.25-2.8008 6.25-6.25s-2.8008-6.25-6.25-6.25-6.2461 2.8008-6.2461 6.25 2.7969 6.25 6.2461 6.25zm34.703 9.375h-13.32c-2.4023 0-4.418 1.8164-4.6641 4.2109l-1.0078 9.8516h24.664l-1.0078-9.8516c-0.24609-2.3945-2.2617-4.2109-4.6641-4.2109zm-6.6602-3.125c3.4492 0 6.25-2.8008 6.25-6.25s-2.8008-6.25-6.25-6.25-6.25 2.8008-6.25 6.25 2.8008 6.25 6.25 6.25zm34.703-3.125h-13.32c-2.4102 0-4.4219 1.8203-4.6641 4.2109l-1.0078 9.8516h24.66l-1.0039-9.8516c-0.24609-2.3906-2.2617-4.2109-4.6641-4.2109zm-6.6602-3.125c3.4492 0 6.2461-2.8008 6.2461-6.25s-2.7969-6.25-6.2461-6.25-6.25 2.8008-6.25 6.25 2.8008 6.25 6.25 6.25zm-51.969-26.039-2.6758 6.3359c-0.23047 0.54688-0.75781 0.91406-1.3516 0.94922s-1.1562-0.26953-1.4453-0.78906l-3.8047-6.707h-2.7344c-4.3164 0-7.8125-3.4961-7.8125-7.8125v-11.25c0-4.3164 3.4961-7.8125 7.8125-7.8125h11.59c0.38672-0.88672 0.94141-1.7031 1.6367-2.3984 1.4648-1.4648 3.4492-2.2891 5.5234-2.2891h34.375c2.0742 0 4.0586 0.82422 5.5234 2.2891 0.69531 0.69531 1.25 1.5117 1.6367 2.3984h11.59c4.3164 0 7.8125 3.4961 7.8125 7.8125v11.25c0 4.3164-3.4961 7.8125-7.8125 7.8125h-2.7344l-3.8047 6.707c-0.28906 0.51953-0.85156 0.82422-1.4453 0.78906s-1.1211-0.40234-1.3516-0.94922l-2.6758-6.3359c-1.3633 2.3047-3.8711 3.8516-6.7383 3.8516h-12.297l-3.4844 7.2422c-0.25781 0.53906-0.80859 0.88281-1.4062 0.88281s-1.1484-0.34375-1.4062-0.88281l-3.4844-7.2422h-12.297c-2.8672 0-5.375-1.5469-6.7383-3.8516zm-1.0742-23.961h-10.938c-2.5898 0-4.6875 2.0977-4.6875 4.6875v11.25c0 2.5898 2.0977 4.6875 4.6875 4.6875h3.6445c0.5625 0 1.0859 0.30469 1.3594 0.79297l2.6914 4.7422 1.9336-4.582c0.23047-0.54297 0.74609-0.91016 1.3359-0.94922-0.019532-0.20703-0.027344-0.41797-0.027344-0.62891zm45.68-3.125c-0.058594-0.0625-0.11328-0.125-0.17578-0.19141-0.88281-0.87891-2.0703-1.3711-3.3164-1.3711h-34.375c-1.2461 0-2.4336 0.49219-3.3164 1.3711-0.0625 0.066406-0.11719 0.12891-0.17578 0.19141-0.76562 0.85547-1.1953 1.9688-1.1953 3.125v20c0 0.21094 0.015625 0.42188 0.042969 0.625 0.16797 1.2734 0.85156 2.3867 1.832 3.125 0.78516 0.58984 1.7578 0.9375 2.8125 0.9375h13.281c0.60156 0 1.1484 0.34375 1.4102 0.88281l2.4961 5.1992 2.4961-5.1992c0.26172-0.53906 0.80859-0.88281 1.4102-0.88281h13.285c1.0508 0 2.0234-0.34766 2.8086-0.9375 0.98047-0.73828 1.6641-1.8516 1.832-3.125 0.027344-0.20312 0.042969-0.41406 0.042969-0.625v-20c0-1.1562-0.42969-2.2695-1.1953-3.125zm4.293 23.754c0.58984 0.039063 1.1055 0.40625 1.3359 0.94922l1.9336 4.582 2.6914-4.7422c0.27344-0.48828 0.79688-0.79297 1.3594-0.79297h3.6445c2.5898 0 4.6875-2.0977 4.6875-4.6875v-11.25c0-2.5898-2.0977-4.6875-4.6875-4.6875h-10.938v20c0 0.21094-0.007812 0.42188-0.027344 0.62891zm-10.074-11.773h-29.797c-0.85937 0-1.5625-0.69922-1.5625-1.5625s0.70313-1.5625 1.5625-1.5625h29.797c0.85937 0 1.5625 0.69922 1.5625 1.5625s-0.70313 1.5625-1.5625 1.5625zm-30.574 10.625c-0.46875-0.27344-0.78516-0.77734-0.78516-1.3555 0-0.86328 0.70313-1.5625 1.5625-1.5625h29.797c0.85937 0 1.5625 0.69922 1.5625 1.5625 0 0.57812-0.31641 1.082-0.78516 1.3555-0.23047 0.12891-0.49609 0.20703-0.77734 0.20703h-29.797c-0.28125 0-0.54687-0.078125-0.77734-0.20703zm30.574-16.043h-29.797c-0.85937 0-1.5625-0.69922-1.5625-1.5625 0-0.39453 0.14844-0.75781 0.39063-1.0352 0.28906-0.32031 0.70703-0.52734 1.1719-0.52734h29.797c0.46484 0 0.88281 0.20703 1.1719 0.52734 0.24219 0.27734 0.39063 0.64062 0.39063 1.0352 0 0.86328-0.70313 1.5625-1.5625 1.5625zm0 10.832h-29.797c-0.85937 0-1.5625-0.69922-1.5625-1.5586 0-0.86328 0.70313-1.5664 1.5625-1.5664h29.797c0.85937 0 1.5625 0.70312 1.5625 1.5664 0 0.85937-0.70313 1.5586-1.5625 1.5586z" fill-rule="evenodd"/>
<text x="0.0" y="117.5" font-size="5.0" font-weight="bold" font-family="Arbeit Regular, Helvetica, Arial-Unicode, Arial, Sans-serif" fill="#000000">Created by Koko Robert</text><text x="0.0" y="122.5" font-size="5.0" font-weight="bold" font-family="Arbeit Regular, Helvetica, Arial-Unicode, Arial, Sans-serif" fill="#000000">from Noun Project</text></svg>